<mxfile host="Electron" agent="Mozilla/5.0 (X11; Linux x86_64) AppleWebKit/537.36 (KHTML, like Gecko) draw.io/27.0.9 Chrome/134.0.6998.205 Electron/35.4.0 Safari/537.36" version="27.0.9">
  <diagram name="PÃ¡gina-1" id="6xO3mPpLTEWNnFJ0A3qG">
    <mxGraphModel dx="1056" dy="624" grid="0" gridSize="10" guides="1" tooltips="1" connect="1" arrows="1" fold="1" page="1" pageScale="1" pageWidth="827" pageHeight="1169" math="0" shadow="0">
      <root>
        <mxCell id="0" />
        <mxCell id="1" parent="0" />
        <mxCell id="cfPpPVlGz3YhCJTiJKdn-1" style="edgeStyle=orthogonalEdgeStyle;rounded=0;orthogonalLoop=1;jettySize=auto;html=1;exitX=0.5;exitY=1;exitDx=0;exitDy=0;" edge="1" parent="1" source="cfPpPVlGz3YhCJTiJKdn-3">
          <mxGeometry relative="1" as="geometry">
            <mxPoint x="218" y="135" as="targetPoint" />
          </mxGeometry>
        </mxCell>
        <mxCell id="cfPpPVlGz3YhCJTiJKdn-2" value="&lt;b&gt;&lt;font style=&quot;font-size: 13px;&quot;&gt;i&lt;/font&gt;&lt;/b&gt;" style="edgeLabel;html=1;align=center;verticalAlign=middle;resizable=0;points=[];" vertex="1" connectable="0" parent="cfPpPVlGz3YhCJTiJKdn-1">
          <mxGeometry x="-0.3687" relative="1" as="geometry">
            <mxPoint as="offset" />
          </mxGeometry>
        </mxCell>
        <mxCell id="cfPpPVlGz3YhCJTiJKdn-3" value="1" style="ellipse;whiteSpace=wrap;html=1;aspect=fixed;" vertex="1" parent="1">
          <mxGeometry x="198" y="46" width="40" height="40" as="geometry" />
        </mxCell>
        <mxCell id="cfPpPVlGz3YhCJTiJKdn-4" value="2" style="ellipse;whiteSpace=wrap;html=1;aspect=fixed;" vertex="1" parent="1">
          <mxGeometry x="198" y="136" width="40" height="40" as="geometry" />
        </mxCell>
        <mxCell id="cfPpPVlGz3YhCJTiJKdn-5" style="edgeStyle=orthogonalEdgeStyle;rounded=0;orthogonalLoop=1;jettySize=auto;html=1;exitX=0.5;exitY=1;exitDx=0;exitDy=0;" edge="1" parent="1" source="cfPpPVlGz3YhCJTiJKdn-7">
          <mxGeometry relative="1" as="geometry">
            <mxPoint x="218" y="315" as="targetPoint" />
          </mxGeometry>
        </mxCell>
        <mxCell id="cfPpPVlGz3YhCJTiJKdn-6" value="&lt;b&gt;&lt;font style=&quot;font-size: 13px;&quot;&gt;iii&lt;/font&gt;&lt;/b&gt;" style="edgeLabel;html=1;align=center;verticalAlign=middle;resizable=0;points=[];" vertex="1" connectable="0" parent="cfPpPVlGz3YhCJTiJKdn-5">
          <mxGeometry x="-0.1736" y="2" relative="1" as="geometry">
            <mxPoint as="offset" />
          </mxGeometry>
        </mxCell>
        <mxCell id="cfPpPVlGz3YhCJTiJKdn-7" value="3" style="ellipse;whiteSpace=wrap;html=1;aspect=fixed;" vertex="1" parent="1">
          <mxGeometry x="198" y="226" width="40" height="40" as="geometry" />
        </mxCell>
        <mxCell id="cfPpPVlGz3YhCJTiJKdn-8" value="4" style="ellipse;whiteSpace=wrap;html=1;aspect=fixed;" vertex="1" parent="1">
          <mxGeometry x="198" y="316" width="40" height="40" as="geometry" />
        </mxCell>
        <mxCell id="cfPpPVlGz3YhCJTiJKdn-9" style="edgeStyle=orthogonalEdgeStyle;rounded=0;orthogonalLoop=1;jettySize=auto;html=1;exitX=0.5;exitY=1;exitDx=0;exitDy=0;" edge="1" parent="1">
          <mxGeometry relative="1" as="geometry">
            <mxPoint x="217.71" y="225" as="targetPoint" />
            <mxPoint x="217.71" y="176" as="sourcePoint" />
          </mxGeometry>
        </mxCell>
        <mxCell id="cfPpPVlGz3YhCJTiJKdn-10" value="&lt;b&gt;&lt;font style=&quot;font-size: 13px;&quot;&gt;ii&lt;/font&gt;&lt;/b&gt;" style="edgeLabel;html=1;align=center;verticalAlign=middle;resizable=0;points=[];" vertex="1" connectable="0" parent="cfPpPVlGz3YhCJTiJKdn-9">
          <mxGeometry x="-0.2357" y="2" relative="1" as="geometry">
            <mxPoint as="offset" />
          </mxGeometry>
        </mxCell>
        <mxCell id="cfPpPVlGz3YhCJTiJKdn-11" style="edgeStyle=orthogonalEdgeStyle;rounded=0;orthogonalLoop=1;jettySize=auto;html=1;exitX=0.5;exitY=1;exitDx=0;exitDy=0;" edge="1" parent="1">
          <mxGeometry relative="1" as="geometry">
            <mxPoint x="217.71" y="405" as="targetPoint" />
            <mxPoint x="217.71" y="356" as="sourcePoint" />
          </mxGeometry>
        </mxCell>
        <mxCell id="cfPpPVlGz3YhCJTiJKdn-12" value="&lt;b&gt;&lt;font style=&quot;font-size: 13px;&quot;&gt;iv&lt;/font&gt;&lt;/b&gt;" style="edgeLabel;html=1;align=center;verticalAlign=middle;resizable=0;points=[];" vertex="1" connectable="0" parent="cfPpPVlGz3YhCJTiJKdn-11">
          <mxGeometry x="-0.292" y="1" relative="1" as="geometry">
            <mxPoint as="offset" />
          </mxGeometry>
        </mxCell>
        <mxCell id="cfPpPVlGz3YhCJTiJKdn-13" style="edgeStyle=orthogonalEdgeStyle;rounded=0;orthogonalLoop=1;jettySize=auto;html=1;exitX=0.5;exitY=1;exitDx=0;exitDy=0;" edge="1" parent="1" source="cfPpPVlGz3YhCJTiJKdn-15">
          <mxGeometry relative="1" as="geometry">
            <mxPoint x="216" y="495" as="targetPoint" />
          </mxGeometry>
        </mxCell>
        <mxCell id="cfPpPVlGz3YhCJTiJKdn-14" value="&lt;span style=&quot;font-size: 13px;&quot;&gt;&lt;b&gt;v&lt;/b&gt;&lt;/span&gt;" style="edgeLabel;html=1;align=center;verticalAlign=middle;resizable=0;points=[];" vertex="1" connectable="0" parent="cfPpPVlGz3YhCJTiJKdn-13">
          <mxGeometry x="-0.3687" y="-3" relative="1" as="geometry">
            <mxPoint as="offset" />
          </mxGeometry>
        </mxCell>
        <mxCell id="cfPpPVlGz3YhCJTiJKdn-15" value="5" style="ellipse;whiteSpace=wrap;html=1;aspect=fixed;" vertex="1" parent="1">
          <mxGeometry x="196" y="406" width="40" height="40" as="geometry" />
        </mxCell>
        <mxCell id="cfPpPVlGz3YhCJTiJKdn-16" value="6" style="ellipse;whiteSpace=wrap;html=1;aspect=fixed;" vertex="1" parent="1">
          <mxGeometry x="196" y="496" width="40" height="40" as="geometry" />
        </mxCell>
        <mxCell id="cfPpPVlGz3YhCJTiJKdn-17" style="edgeStyle=orthogonalEdgeStyle;rounded=0;orthogonalLoop=1;jettySize=auto;html=1;exitX=0.5;exitY=1;exitDx=0;exitDy=0;" edge="1" parent="1" source="cfPpPVlGz3YhCJTiJKdn-19">
          <mxGeometry relative="1" as="geometry">
            <mxPoint x="216" y="675" as="targetPoint" />
          </mxGeometry>
        </mxCell>
        <mxCell id="cfPpPVlGz3YhCJTiJKdn-18" value="&lt;b&gt;&lt;font style=&quot;font-size: 13px;&quot;&gt;vii&lt;/font&gt;&lt;/b&gt;" style="edgeLabel;html=1;align=center;verticalAlign=middle;resizable=0;points=[];" vertex="1" connectable="0" parent="cfPpPVlGz3YhCJTiJKdn-17">
          <mxGeometry x="-0.313" relative="1" as="geometry">
            <mxPoint as="offset" />
          </mxGeometry>
        </mxCell>
        <mxCell id="cfPpPVlGz3YhCJTiJKdn-19" value="7" style="ellipse;whiteSpace=wrap;html=1;aspect=fixed;" vertex="1" parent="1">
          <mxGeometry x="196" y="586" width="40" height="40" as="geometry" />
        </mxCell>
        <mxCell id="cfPpPVlGz3YhCJTiJKdn-20" value="8" style="ellipse;whiteSpace=wrap;html=1;aspect=fixed;" vertex="1" parent="1">
          <mxGeometry x="196" y="676" width="40" height="40" as="geometry" />
        </mxCell>
        <mxCell id="cfPpPVlGz3YhCJTiJKdn-21" style="edgeStyle=orthogonalEdgeStyle;rounded=0;orthogonalLoop=1;jettySize=auto;html=1;exitX=0.5;exitY=1;exitDx=0;exitDy=0;" edge="1" parent="1">
          <mxGeometry relative="1" as="geometry">
            <mxPoint x="215.71" y="585" as="targetPoint" />
            <mxPoint x="215.71" y="536" as="sourcePoint" />
          </mxGeometry>
        </mxCell>
        <mxCell id="cfPpPVlGz3YhCJTiJKdn-22" value="&lt;b&gt;&lt;font style=&quot;font-size: 13px;&quot;&gt;vi&lt;/font&gt;&lt;/b&gt;" style="edgeLabel;html=1;align=center;verticalAlign=middle;resizable=0;points=[];" vertex="1" connectable="0" parent="cfPpPVlGz3YhCJTiJKdn-21">
          <mxGeometry x="-0.0387" y="3" relative="1" as="geometry">
            <mxPoint as="offset" />
          </mxGeometry>
        </mxCell>
        <mxCell id="cfPpPVlGz3YhCJTiJKdn-23" style="edgeStyle=orthogonalEdgeStyle;rounded=0;orthogonalLoop=1;jettySize=auto;html=1;exitX=0.5;exitY=1;exitDx=0;exitDy=0;" edge="1" parent="1">
          <mxGeometry relative="1" as="geometry">
            <mxPoint x="215.71" y="765" as="targetPoint" />
            <mxPoint x="215.71" y="716" as="sourcePoint" />
          </mxGeometry>
        </mxCell>
        <mxCell id="cfPpPVlGz3YhCJTiJKdn-24" value="&lt;b&gt;&lt;font style=&quot;font-size: 13px;&quot;&gt;viii&lt;/font&gt;&lt;/b&gt;" style="edgeLabel;html=1;align=center;verticalAlign=middle;resizable=0;points=[];" vertex="1" connectable="0" parent="cfPpPVlGz3YhCJTiJKdn-23">
          <mxGeometry x="-0.2357" y="1" relative="1" as="geometry">
            <mxPoint as="offset" />
          </mxGeometry>
        </mxCell>
        <mxCell id="cfPpPVlGz3YhCJTiJKdn-25" value="9" style="ellipse;whiteSpace=wrap;html=1;aspect=fixed;" vertex="1" parent="1">
          <mxGeometry x="196" y="766" width="40" height="40" as="geometry" />
        </mxCell>
        <mxCell id="cfPpPVlGz3YhCJTiJKdn-53" style="edgeStyle=orthogonalEdgeStyle;rounded=0;orthogonalLoop=1;jettySize=auto;html=1;exitX=0;exitY=0.5;exitDx=0;exitDy=0;" edge="1" parent="1" source="cfPpPVlGz3YhCJTiJKdn-25">
          <mxGeometry relative="1" as="geometry">
            <mxPoint x="137" y="986" as="sourcePoint" />
            <mxPoint x="216.00000000000023" y="1023" as="targetPoint" />
            <Array as="points">
              <mxPoint x="137" y="786" />
              <mxPoint x="137" y="1003" />
              <mxPoint x="216" y="1003" />
            </Array>
          </mxGeometry>
        </mxCell>
        <mxCell id="cfPpPVlGz3YhCJTiJKdn-55" value="&lt;b&gt;&lt;font style=&quot;font-size: 13px;&quot;&gt;ix&lt;/font&gt;&lt;/b&gt;" style="edgeLabel;html=1;align=center;verticalAlign=middle;resizable=0;points=[];" vertex="1" connectable="0" parent="cfPpPVlGz3YhCJTiJKdn-53">
          <mxGeometry x="-0.2759" y="-1" relative="1" as="geometry">
            <mxPoint as="offset" />
          </mxGeometry>
        </mxCell>
        <mxCell id="cfPpPVlGz3YhCJTiJKdn-45" style="edgeStyle=orthogonalEdgeStyle;rounded=0;orthogonalLoop=1;jettySize=auto;html=1;exitX=1;exitY=0.5;exitDx=0;exitDy=0;" edge="1" parent="1" source="cfPpPVlGz3YhCJTiJKdn-25">
          <mxGeometry relative="1" as="geometry">
            <mxPoint x="294" y="855" as="targetPoint" />
            <mxPoint x="294" y="806" as="sourcePoint" />
            <Array as="points">
              <mxPoint x="295" y="786" />
            </Array>
          </mxGeometry>
        </mxCell>
        <mxCell id="cfPpPVlGz3YhCJTiJKdn-46" value="&lt;b&gt;&lt;font style=&quot;font-size: 13px;&quot;&gt;x&lt;/font&gt;&lt;/b&gt;" style="edgeLabel;html=1;align=center;verticalAlign=middle;resizable=0;points=[];" vertex="1" connectable="0" parent="cfPpPVlGz3YhCJTiJKdn-45">
          <mxGeometry x="-0.313" relative="1" as="geometry">
            <mxPoint as="offset" />
          </mxGeometry>
        </mxCell>
        <mxCell id="cfPpPVlGz3YhCJTiJKdn-47" value="10" style="ellipse;whiteSpace=wrap;html=1;aspect=fixed;" vertex="1" parent="1">
          <mxGeometry x="274" y="856" width="40" height="40" as="geometry" />
        </mxCell>
        <mxCell id="cfPpPVlGz3YhCJTiJKdn-48" style="edgeStyle=orthogonalEdgeStyle;rounded=0;orthogonalLoop=1;jettySize=auto;html=1;exitX=0.5;exitY=1;exitDx=0;exitDy=0;" edge="1" parent="1">
          <mxGeometry relative="1" as="geometry">
            <mxPoint x="293.71000000000004" y="945" as="targetPoint" />
            <mxPoint x="293.71000000000004" y="896" as="sourcePoint" />
          </mxGeometry>
        </mxCell>
        <mxCell id="cfPpPVlGz3YhCJTiJKdn-49" value="&lt;b&gt;&lt;font style=&quot;font-size: 13px;&quot;&gt;xi&lt;/font&gt;&lt;/b&gt;" style="edgeLabel;html=1;align=center;verticalAlign=middle;resizable=0;points=[];" vertex="1" connectable="0" parent="cfPpPVlGz3YhCJTiJKdn-48">
          <mxGeometry x="-0.2357" y="1" relative="1" as="geometry">
            <mxPoint as="offset" />
          </mxGeometry>
        </mxCell>
        <mxCell id="cfPpPVlGz3YhCJTiJKdn-54" value="&lt;b&gt;&lt;font style=&quot;font-size: 13px;&quot;&gt;xii&lt;/font&gt;&lt;/b&gt;" style="edgeStyle=orthogonalEdgeStyle;rounded=0;orthogonalLoop=1;jettySize=auto;html=1;exitX=0.5;exitY=1;exitDx=0;exitDy=0;entryX=0.5;entryY=0;entryDx=0;entryDy=0;" edge="1" parent="1" source="cfPpPVlGz3YhCJTiJKdn-50">
          <mxGeometry x="-0.0045" relative="1" as="geometry">
            <mxPoint x="216" y="1023" as="targetPoint" />
            <Array as="points">
              <mxPoint x="294" y="1003" />
              <mxPoint x="216" y="1003" />
            </Array>
            <mxPoint as="offset" />
          </mxGeometry>
        </mxCell>
        <mxCell id="cfPpPVlGz3YhCJTiJKdn-50" value="11" style="ellipse;whiteSpace=wrap;html=1;aspect=fixed;" vertex="1" parent="1">
          <mxGeometry x="274" y="946" width="40" height="40" as="geometry" />
        </mxCell>
        <mxCell id="cfPpPVlGz3YhCJTiJKdn-57" value="12" style="ellipse;whiteSpace=wrap;html=1;aspect=fixed;" vertex="1" parent="1">
          <mxGeometry x="195.9993897364836" y="1022" width="40" height="40" as="geometry" />
        </mxCell>
        <mxCell id="cfPpPVlGz3YhCJTiJKdn-60" style="edgeStyle=orthogonalEdgeStyle;rounded=0;orthogonalLoop=1;jettySize=auto;html=1;exitX=1;exitY=0.5;exitDx=0;exitDy=0;" edge="1" parent="1" source="cfPpPVlGz3YhCJTiJKdn-57">
          <mxGeometry relative="1" as="geometry">
            <mxPoint x="293.99938973648364" y="1111" as="targetPoint" />
            <mxPoint x="293.99938973648364" y="1062" as="sourcePoint" />
            <Array as="points">
              <mxPoint x="294.99938973648364" y="1042" />
            </Array>
          </mxGeometry>
        </mxCell>
        <mxCell id="cfPpPVlGz3YhCJTiJKdn-61" value="&lt;b&gt;&lt;font style=&quot;font-size: 13px;&quot;&gt;xiv&lt;/font&gt;&lt;/b&gt;" style="edgeLabel;html=1;align=center;verticalAlign=middle;resizable=0;points=[];" vertex="1" connectable="0" parent="cfPpPVlGz3YhCJTiJKdn-60">
          <mxGeometry x="-0.313" relative="1" as="geometry">
            <mxPoint as="offset" />
          </mxGeometry>
        </mxCell>
        <mxCell id="cfPpPVlGz3YhCJTiJKdn-62" value="13" style="ellipse;whiteSpace=wrap;html=1;aspect=fixed;" vertex="1" parent="1">
          <mxGeometry x="273.99938973648364" y="1112" width="40" height="40" as="geometry" />
        </mxCell>
        <mxCell id="cfPpPVlGz3YhCJTiJKdn-63" style="edgeStyle=orthogonalEdgeStyle;rounded=0;orthogonalLoop=1;jettySize=auto;html=1;exitX=0.5;exitY=1;exitDx=0;exitDy=0;" edge="1" parent="1">
          <mxGeometry relative="1" as="geometry">
            <mxPoint x="293.7093897364837" y="1201" as="targetPoint" />
            <mxPoint x="293.7093897364837" y="1152" as="sourcePoint" />
          </mxGeometry>
        </mxCell>
        <mxCell id="cfPpPVlGz3YhCJTiJKdn-64" value="&lt;b&gt;&lt;font style=&quot;font-size: 13px;&quot;&gt;xv&lt;/font&gt;&lt;/b&gt;" style="edgeLabel;html=1;align=center;verticalAlign=middle;resizable=0;points=[];" vertex="1" connectable="0" parent="cfPpPVlGz3YhCJTiJKdn-63">
          <mxGeometry x="-0.2357" y="1" relative="1" as="geometry">
            <mxPoint as="offset" />
          </mxGeometry>
        </mxCell>
        <mxCell id="cfPpPVlGz3YhCJTiJKdn-68" style="edgeStyle=orthogonalEdgeStyle;rounded=0;orthogonalLoop=1;jettySize=auto;html=1;exitX=0.5;exitY=1;exitDx=0;exitDy=0;" edge="1" parent="1" source="cfPpPVlGz3YhCJTiJKdn-65" target="cfPpPVlGz3YhCJTiJKdn-66">
          <mxGeometry relative="1" as="geometry" />
        </mxCell>
        <mxCell id="cfPpPVlGz3YhCJTiJKdn-70" value="&lt;b&gt;&lt;font style=&quot;font-size: 13px;&quot;&gt;xvi&lt;/font&gt;&lt;/b&gt;" style="edgeLabel;html=1;align=center;verticalAlign=middle;resizable=0;points=[];" vertex="1" connectable="0" parent="cfPpPVlGz3YhCJTiJKdn-68">
          <mxGeometry x="-0.8133" y="3" relative="1" as="geometry">
            <mxPoint as="offset" />
          </mxGeometry>
        </mxCell>
        <mxCell id="cfPpPVlGz3YhCJTiJKdn-65" value="14" style="ellipse;whiteSpace=wrap;html=1;aspect=fixed;" vertex="1" parent="1">
          <mxGeometry x="273.99938973648364" y="1202" width="40" height="40" as="geometry" />
        </mxCell>
        <mxCell id="cfPpPVlGz3YhCJTiJKdn-66" value="15" style="ellipse;whiteSpace=wrap;html=1;aspect=fixed;" vertex="1" parent="1">
          <mxGeometry x="209" y="1278" width="40" height="40" as="geometry" />
        </mxCell>
        <mxCell id="cfPpPVlGz3YhCJTiJKdn-67" style="edgeStyle=orthogonalEdgeStyle;rounded=0;orthogonalLoop=1;jettySize=auto;html=1;exitX=0;exitY=0.5;exitDx=0;exitDy=0;entryX=0.472;entryY=0.001;entryDx=0;entryDy=0;entryPerimeter=0;" edge="1" parent="1" source="cfPpPVlGz3YhCJTiJKdn-57" target="cfPpPVlGz3YhCJTiJKdn-66">
          <mxGeometry relative="1" as="geometry" />
        </mxCell>
        <mxCell id="cfPpPVlGz3YhCJTiJKdn-69" value="&lt;b&gt;&lt;font style=&quot;font-size: 13px;&quot;&gt;xiii&lt;/font&gt;&lt;/b&gt;" style="edgeLabel;html=1;align=center;verticalAlign=middle;resizable=0;points=[];" vertex="1" connectable="0" parent="cfPpPVlGz3YhCJTiJKdn-67">
          <mxGeometry x="-0.437" y="3" relative="1" as="geometry">
            <mxPoint as="offset" />
          </mxGeometry>
        </mxCell>
      </root>
    </mxGraphModel>
  </diagram>
</mxfile>
